<svg width="80" height="80" viewBox="0 0 80 80" fill="none" xmlns="http://www.w3.org/2000/svg">
<path d="M47.0312 25.9375C43.8398 25.9375 41.5031 27.4206 40 28.8359C38.4969 27.4208 36.1602 25.9375 32.9688 25.9375C27.205 25.9375 23.5938 31.5081 23.5938 37.4431C23.5938 44.3177 28.2288 50.7509 38.6223 58.3023L40 59.3033L41.3777 58.3023C51.7712 50.7509 56.4062 44.3178 56.4062 37.4431C56.4062 31.4623 52.7517 25.9375 47.0312 25.9375ZM40 53.4891C32.0138 47.4455 28.2812 42.3231 28.2812 37.4433C28.2812 34.0917 30.0347 30.6252 32.9688 30.6252C36.1008 30.6252 37.8247 33.4259 37.958 33.6508L39.9822 37.4691L42.0414 33.6519C42.1702 33.4341 43.8945 30.625 47.0312 30.625C49.9653 30.625 51.7188 34.0917 51.7188 37.4431C51.7188 42.323 47.9862 47.4455 40 53.4891Z" fill="#1964F5"/>
<path d="M70.625 18.75C75.7944 18.75 80 14.5444 80 9.375C80 4.20563 75.7944 0 70.625 0C65.4556 0 61.25 4.20563 61.25 9.375C61.25 11.1111 61.7261 12.7375 62.552 14.1334L58.1508 18.5347C53.2486 14.383 46.9122 11.875 40 11.875C33.0878 11.875 26.7514 14.383 21.8492 18.5347L17.448 14.1334C18.2739 12.7375 18.75 11.1111 18.75 9.375C18.75 4.20563 14.5444 0 9.375 0C4.20563 0 0 4.20563 0 9.375C0 14.5444 4.20563 18.75 9.375 18.75C11.1111 18.75 12.7375 18.2739 14.1334 17.448L18.5347 21.8492C14.383 26.7514 11.875 33.0878 11.875 40C11.875 46.9122 14.383 53.2486 18.5347 58.1508L14.1334 62.552C12.7375 61.7261 11.1111 61.25 9.375 61.25C4.20563 61.25 0 65.4556 0 70.625C0 75.7944 4.20563 80 9.375 80C14.5444 80 18.75 75.7944 18.75 70.625C18.75 68.8889 18.2739 67.2625 17.448 65.8666L21.8492 61.4653C26.7514 65.617 33.0878 68.125 40 68.125C46.9122 68.125 53.2486 65.617 58.1508 61.4653L62.552 65.8666C61.7261 67.2625 61.25 68.8889 61.25 70.625C61.25 75.7944 65.4556 80 70.625 80C75.7944 80 80 75.7944 80 70.625C80 65.4556 75.7944 61.25 70.625 61.25C68.8889 61.25 67.2625 61.7261 65.8667 62.552L61.4655 58.1508C65.617 53.2486 68.125 46.9122 68.125 40C68.125 33.0878 65.617 26.7514 61.4653 21.8492L65.8666 17.448C67.2625 18.2739 68.8889 18.75 70.625 18.75ZM70.625 4.6875C73.2097 4.6875 75.3125 6.79031 75.3125 9.375C75.3125 11.9597 73.2097 14.0625 70.625 14.0625C68.0403 14.0625 65.9375 11.9597 65.9375 9.375C65.9375 6.79031 68.0403 4.6875 70.625 4.6875ZM9.375 14.0625C6.79031 14.0625 4.6875 11.9597 4.6875 9.375C4.6875 6.79031 6.79031 4.6875 9.375 4.6875C11.9597 4.6875 14.0625 6.79031 14.0625 9.375C14.0625 11.9597 11.9597 14.0625 9.375 14.0625ZM9.375 75.3125C6.79031 75.3125 4.6875 73.2097 4.6875 70.625C4.6875 68.0403 6.79031 65.9375 9.375 65.9375C11.9597 65.9375 14.0625 68.0403 14.0625 70.625C14.0625 73.2097 11.9597 75.3125 9.375 75.3125ZM70.625 65.9375C73.2097 65.9375 75.3125 68.0403 75.3125 70.625C75.3125 73.2097 73.2097 75.3125 70.625 75.3125C68.0403 75.3125 65.9375 73.2097 65.9375 70.625C65.9375 68.0403 68.0403 65.9375 70.625 65.9375ZM63.4375 40C63.4375 52.9234 52.9234 63.4375 40 63.4375C27.0766 63.4375 16.5625 52.9234 16.5625 40C16.5625 27.0766 27.0766 16.5625 40 16.5625C52.9234 16.5625 63.4375 27.0766 63.4375 40Z" fill="#1964F5"/>
</svg>
