<svg width="80" height="80" viewBox="0 0 80 80" fill="none" xmlns="http://www.w3.org/2000/svg">
<path d="M41.25 70H38.75V72.5H41.25V70Z" fill="#888888"/>
<path d="M8.75 30H13.3497L21.7738 36.0175C21.9778 36.1631 22.2208 36.244 22.4714 36.2498C22.722 36.2555 22.9685 36.1857 23.179 36.0496C23.3894 35.9134 23.554 35.7172 23.6515 35.4862C23.749 35.2553 23.7748 35.0005 23.7256 34.7547L22.7747 30H31.25C32.907 29.9981 34.4956 29.339 35.6673 28.1673C36.839 26.9956 37.4981 25.407 37.5 23.75V8.75C37.4981 7.09299 36.839 5.50441 35.6673 4.33273C34.4956 3.16105 32.907 2.50194 31.25 2.5H8.75C7.09299 2.50194 5.50441 3.16105 4.33273 4.33273C3.16105 5.50441 2.50194 7.09299 2.5 8.75V23.75C2.50194 25.407 3.16105 26.9956 4.33273 28.1673C5.50441 29.339 7.09299 29.9981 8.75 30ZM5 8.75C5.00112 7.75578 5.39656 6.8026 6.09958 6.09958C6.8026 5.39656 7.75578 5.00112 8.75 5H31.25C32.2442 5.00112 33.1974 5.39656 33.9004 6.09958C34.6034 6.8026 34.9989 7.75578 35 8.75V23.75C34.9989 24.7442 34.6034 25.6974 33.9004 26.4004C33.1974 27.1034 32.2442 27.4989 31.25 27.5H21.25C21.0651 27.5 20.8824 27.5411 20.7152 27.6202C20.5481 27.6993 20.4006 27.8146 20.2833 27.9576C20.1661 28.1006 20.082 28.2679 20.0373 28.4474C19.9925 28.6268 19.9881 28.814 20.0244 28.9953L20.6544 32.1453L14.4763 27.7325C14.2643 27.5812 14.0104 27.5 13.75 27.5H8.75C7.75578 27.4989 6.8026 27.1034 6.09958 26.4004C5.39656 25.6974 5.00112 24.7442 5 23.75V8.75Z" fill="#888888"/>
<path d="M11.2494 14.9999V22.4999C11.2494 22.8315 11.3811 23.1494 11.6155 23.3838C11.85 23.6182 12.1679 23.7499 12.4994 23.7499H22.4994C22.831 23.7499 23.1489 23.6182 23.3833 23.3838C23.6177 23.1494 23.7494 22.8315 23.7494 22.4999V22.0226L26.9404 23.6181C27.131 23.7134 27.3427 23.7584 27.5556 23.7488C27.7685 23.7392 27.9754 23.6754 28.1566 23.5634C28.3379 23.4513 28.4875 23.2948 28.5912 23.1087C28.695 22.9226 28.7495 22.713 28.7494 22.4999V14.9999C28.7495 14.7869 28.695 14.5773 28.5912 14.3912C28.4875 14.2051 28.3379 14.0486 28.1566 13.9365C27.9754 13.8245 27.7685 13.7607 27.5556 13.7511C27.3427 13.7415 27.131 13.7865 26.9404 13.8818L23.7494 15.4773V14.9999C23.7494 14.9792 23.7387 14.9618 23.7376 14.9413C24.1438 14.5327 24.4652 14.0477 24.6832 13.5143C24.9013 12.981 25.0116 12.4097 25.008 11.8335C25.0044 11.2573 24.8868 10.6875 24.662 10.1569C24.4372 9.62636 24.1098 9.14548 23.6984 8.742C23.287 8.33851 22.7999 8.02038 22.2651 7.80592C21.7302 7.59147 21.1583 7.48493 20.5821 7.49244C20.0059 7.49994 19.4369 7.62135 18.9079 7.84966C18.3788 8.07797 17.9002 8.40869 17.4994 8.82275C17.0987 8.40869 16.62 8.07797 16.091 7.84966C15.5619 7.62135 14.9929 7.49994 14.4168 7.49244C13.8406 7.48493 13.2686 7.59147 12.7338 7.80592C12.199 8.02038 11.7119 8.33851 11.3005 8.742C10.8891 9.14548 10.5616 9.62636 10.3369 10.1569C10.1121 10.6875 9.99451 11.2573 9.99087 11.8335C9.98723 12.4097 10.0976 12.981 10.3156 13.5143C10.5337 14.0477 10.8551 14.5327 11.2613 14.9413C11.2602 14.9618 11.2494 14.9792 11.2494 14.9999ZM21.2494 21.2499H13.7494V16.2499H21.2494V21.2499ZM26.2494 17.0226V20.4773L23.7494 19.2273V18.2726L26.2494 17.0226ZM20.6244 9.99994C20.9953 9.99994 21.3578 10.1099 21.6661 10.3159C21.9745 10.522 22.2148 10.8148 22.3567 11.1574C22.4986 11.5 22.5358 11.877 22.4634 12.2407C22.3911 12.6045 22.2125 12.9385 21.9503 13.2008C21.688 13.463 21.3539 13.6416 20.9902 13.7139C20.6265 13.7863 20.2495 13.7491 19.9069 13.6072C19.5643 13.4653 19.2715 13.225 19.0654 12.9166C18.8594 12.6083 18.7494 12.2458 18.7494 11.8749C18.75 11.3778 18.9477 10.9012 19.2992 10.5497C19.6507 10.1982 20.1273 10.0005 20.6244 9.99994ZM14.3744 9.99994C14.7453 9.99994 15.1078 10.1099 15.4161 10.3159C15.7245 10.522 15.9648 10.8148 16.1067 11.1574C16.2486 11.5 16.2858 11.877 16.2134 12.2407C16.1411 12.6045 15.9625 12.9385 15.7003 13.2008C15.438 13.463 15.1039 13.6416 14.7402 13.7139C14.3765 13.7863 13.9995 13.7491 13.6569 13.6072C13.3143 13.4653 13.0215 13.225 12.8154 12.9166C12.6094 12.6083 12.4994 12.2458 12.4994 11.8749C12.5 11.3778 12.6977 10.9012 13.0492 10.5497C13.4007 10.1982 13.8773 10.0005 14.3744 9.99994Z" fill="#888888"/>
<path d="M71.25 12.5H59.8736C59.5837 11.0894 58.8163 9.82195 57.7008 8.91117C56.5854 8.00038 55.1901 7.502 53.75 7.5H40V10H53.75C54.523 10.0024 55.2763 10.2439 55.9065 10.6916C56.5367 11.1392 57.0129 11.7709 57.2697 12.5H46.25C44.593 12.5019 43.0044 13.161 41.8327 14.3327C40.661 15.5044 40.0019 17.093 40 18.75V33.75C40.0019 35.407 40.661 36.9956 41.8327 38.1673C43.0044 39.339 44.593 39.9981 46.25 40H55.9753L55.0244 44.7547C54.9752 45.0005 55.001 45.2553 55.0985 45.4863C55.196 45.7172 55.3606 45.9134 55.5711 46.0496C55.7815 46.1857 56.028 46.2555 56.2786 46.2498C56.5292 46.244 56.7722 46.1631 56.9762 46.0175L57.5 45.6434V50.7325L54.0088 47.2412C53.4823 46.7148 52.8573 46.2972 52.1695 46.0123C51.4817 45.7274 50.7445 45.5808 50 45.5808C49.2555 45.5808 48.5183 45.7274 47.8305 46.0123C47.1427 46.2972 46.5177 46.7148 45.9912 47.2412C45.4648 47.7677 45.0472 48.3927 44.7623 49.0805C44.4774 49.7683 44.3308 50.5055 44.3308 51.25C44.3308 51.9945 44.4774 52.7317 44.7623 53.4195C45.0472 54.1073 45.4648 54.7323 45.9912 55.2588L53.3887 62.6562C52.9112 63.3913 52.5175 64.1774 52.2148 65H20V71.25C20.0019 72.907 20.661 74.4956 21.8327 75.6673C23.0044 76.839 24.593 77.4981 26.25 77.5H70C70.3315 77.5 70.6495 77.3683 70.8839 77.1339C71.1183 76.8995 71.25 76.5815 71.25 76.25V52.55C71.255 49.2482 70.0662 46.0558 67.9028 43.5614L65.2431 40.1123L65.4003 40H71.25C72.907 39.9981 74.4956 39.339 75.6673 38.1673C76.839 36.9956 77.4981 35.407 77.5 33.75V18.75C77.4981 17.093 76.839 15.5044 75.6673 14.3327C74.4956 13.161 72.907 12.5019 71.25 12.5ZM46.25 15H71.25C72.2442 15.0011 73.1974 15.3966 73.9004 16.0996C74.6034 16.8026 74.9989 17.7558 75 18.75V31.4144L69.4434 27.71C69.238 27.5733 68.9968 27.5003 68.75 27.5003C68.5032 27.5003 68.262 27.5733 68.0566 27.71L61.2927 32.2188L52 25.25C51.7838 25.0878 51.5208 25 51.2505 25C50.9802 25 50.7171 25.0878 50.5009 25.25L42.5 31.25V18.75C42.5011 17.7558 42.8966 16.8026 43.5996 16.0996C44.3026 15.3966 45.2558 15.0011 46.25 15ZM22.5 71.25V67.5H51.5181C51.1143 70.0661 51.5416 72.6941 52.7378 75H26.25C25.2558 74.9989 24.3026 74.6034 23.5996 73.9004C22.8966 73.1974 22.5011 72.2442 22.5 71.25ZM65.9717 45.147C67.7631 47.1972 68.7502 49.8275 68.75 52.55V75H55.6311C54.7811 73.7962 54.217 72.4143 53.9818 70.9595C53.7465 69.5048 53.8464 68.0155 54.2738 66.6052C54.5414 65.6923 54.9464 64.8254 55.4748 64.0344L56.0373 63.197C56.1988 62.9565 56.2718 62.6674 56.2437 62.3791C56.2156 62.0907 56.0883 61.8211 55.8834 61.6162L47.7584 53.4912C47.4642 53.1969 47.2307 52.8475 47.0715 52.463C46.9122 52.0784 46.8303 51.6663 46.8303 51.2501C46.8304 50.4095 47.1643 49.6034 47.7588 49.0091C48.3532 48.4147 49.1593 48.0809 49.9999 48.0809C50.4161 48.081 50.8282 48.163 51.2128 48.3223C51.5973 48.4816 51.9467 48.715 52.2409 49.0094L62.8659 59.6344L64.6334 57.8669L60 53.2325V43.8575L63.2075 41.5664L65.9717 45.147ZM71.25 37.5H65C64.7396 37.5 64.4857 37.5812 64.2738 37.7325L58.0956 42.1453L58.7256 38.9953C58.7619 38.814 58.7575 38.6268 58.7127 38.4474C58.668 38.2679 58.5839 38.1006 58.4667 37.9576C58.3494 37.8146 58.2019 37.6993 58.0348 37.6202C57.8676 37.5411 57.6849 37.5 57.5 37.5H46.25C45.3581 37.4977 44.4963 37.1772 43.8196 36.5962C43.143 36.0151 42.6958 35.2117 42.5586 34.3305L51.25 27.8125L60.5 34.75C60.7067 34.9053 60.9566 34.9926 61.2151 34.9998C61.4735 35.007 61.7279 34.9338 61.943 34.7903L68.75 30.252L74.9375 34.377C74.7901 35.249 74.3391 36.0407 73.6643 36.6122C72.9895 37.1837 72.1343 37.4981 71.25 37.5Z" fill="#888888"/>
<path d="M61.25 27.5C62.2389 27.5 63.2056 27.2068 64.0279 26.6574C64.8501 26.1079 65.491 25.327 65.8694 24.4134C66.2478 23.4998 66.3469 22.4945 66.1539 21.5246C65.961 20.5546 65.4848 19.6637 64.7855 18.9645C64.0863 18.2652 63.1954 17.789 62.2255 17.5961C61.2556 17.4031 60.2502 17.5022 59.3366 17.8806C58.423 18.259 57.6421 18.8999 57.0927 19.7222C56.5432 20.5444 56.25 21.5111 56.25 22.5C56.2514 23.8257 56.7786 25.0966 57.716 26.034C58.6534 26.9714 59.9244 27.4986 61.25 27.5ZM61.25 20C61.7445 20 62.2278 20.1466 62.6389 20.4213C63.0501 20.696 63.3705 21.0865 63.5597 21.5433C63.7489 22.0001 63.7984 22.5028 63.702 22.9877C63.6055 23.4727 63.3674 23.9181 63.0178 24.2678C62.6681 24.6174 62.2227 24.8555 61.7377 24.952C61.2528 25.0484 60.7501 24.9989 60.2933 24.8097C59.8365 24.6205 59.446 24.3001 59.1713 23.8889C58.8966 23.4778 58.75 22.9945 58.75 22.5C58.7508 21.8372 59.0144 21.2018 59.4831 20.7331C59.9518 20.2644 60.5872 20.0008 61.25 20Z" fill="#888888"/>
<path d="M8.75 62.5H28.75C30.407 62.4981 31.9956 61.8389 33.1673 60.6673C34.339 59.4956 34.9981 57.907 35 56.25V48.75C34.9981 47.093 34.339 45.5044 33.1673 44.3327C31.9956 43.161 30.407 42.5019 28.75 42.5H27.8516L28.7122 39.0533C28.7715 38.8157 28.7597 38.5659 28.6783 38.335C28.5969 38.104 28.4495 37.9021 28.2543 37.7542C28.0592 37.6063 27.8249 37.519 27.5805 37.5031C27.3362 37.4872 27.0925 37.5435 26.8798 37.6648L18.418 42.5H8.75C7.09299 42.5019 5.50441 43.161 4.33273 44.3327C3.16105 45.5044 2.50194 47.093 2.5 48.75V56.25C2.50194 57.907 3.16105 59.4956 4.33273 60.6673C5.50441 61.8389 7.09299 62.4981 8.75 62.5ZM5 48.75C5.00112 47.7558 5.39656 46.8026 6.09958 46.0996C6.8026 45.3966 7.75578 45.0011 8.75 45H18.75C18.9675 44.9999 19.1813 44.9431 19.3702 44.8352L25.5773 41.2883L25.0378 43.4466C24.9917 43.6308 24.9882 43.8232 25.0276 44.009C25.0669 44.1948 25.1481 44.3692 25.265 44.519C25.3818 44.6687 25.5313 44.7899 25.7019 44.8732C25.8726 44.9566 26.0601 44.9999 26.25 45H28.75C29.7442 45.0011 30.6974 45.3966 31.4004 46.0996C32.1034 46.8026 32.4989 47.7558 32.5 48.75V56.25C32.4989 57.2442 32.1034 58.1974 31.4004 58.9004C30.6974 59.6034 29.7442 59.9989 28.75 60H8.75C7.75578 59.9989 6.8026 59.6034 6.09958 58.9004C5.39656 58.1974 5.00112 57.2442 5 56.25V48.75Z" fill="#888888"/>
<path d="M21.25 48.75H7.5V51.25H21.25V48.75Z" fill="#888888"/>
<path d="M30 48.75H23.75V51.25H30V48.75Z" fill="#888888"/>
<path d="M30 53.75H7.5V56.25H30V53.75Z" fill="#888888"/>
</svg>
