<svg width="14" height="14" viewBox="0 0 14 14" fill="none" xmlns="http://www.w3.org/2000/svg">
<path d="M3.38341 5.06163H0.436977V13.9098H3.38341V5.06163ZM3.57091 2.32948C3.56198 1.46341 2.93698 0.802699 1.92805 0.802699C0.928048 0.802699 0.267334 1.46341 0.267334 2.32948C0.267334 3.1777 0.901263 3.85627 1.89233 3.85627H1.91019C2.93698 3.85627 3.57983 3.1777 3.57091 2.32948ZM13.9816 8.83841C13.9816 6.12413 12.5352 4.85627 10.5977 4.85627C9.00841 4.85627 8.31198 5.7402 7.92805 6.34734H7.94591V5.06163H5.00841C5.00841 5.06163 5.04412 5.89198 5.00841 13.9098H7.94591V8.97234C7.94591 8.70448 7.97269 8.44556 8.04412 8.24913C8.25841 7.72234 8.74055 7.1777 9.55305 7.1777C10.6155 7.1777 11.0441 7.9902 11.0441 9.1777V13.9098H13.9816V8.83841Z" fill="#454545"/>
</svg>
