<svg width="14" height="15" viewBox="0 0 14 15" fill="none" xmlns="http://www.w3.org/2000/svg">
<path d="M9.41019 7.18342C9.41019 8.44235 8.38341 9.46913 7.12448 9.46913C5.86555 9.46913 4.83876 8.44235 4.83876 7.18342C4.83876 5.92449 5.86555 4.89771 7.12448 4.89771C8.38341 4.89771 9.41019 5.92449 9.41019 7.18342ZM10.6423 7.18342C10.6423 5.23699 9.07091 3.66556 7.12448 3.66556C5.17805 3.66556 3.60662 5.23699 3.60662 7.18342C3.60662 9.12985 5.17805 10.7013 7.12448 10.7013C9.07091 10.7013 10.6423 9.12985 10.6423 7.18342ZM11.6066 3.52271C11.6066 3.06735 11.2405 2.70128 10.7852 2.70128C10.3298 2.70128 9.96376 3.06735 9.96376 3.52271C9.96376 3.97806 10.3298 4.34413 10.7852 4.34413C11.2405 4.34413 11.6066 3.97806 11.6066 3.52271ZM7.12448 1.55842C8.12448 1.55842 10.2673 1.47806 11.1691 1.8352C11.4816 1.9602 11.7138 2.11199 11.9548 2.35306C12.1959 2.59413 12.3477 2.82628 12.4727 3.13878C12.8298 4.04056 12.7495 6.18342 12.7495 7.18342C12.7495 8.18342 12.8298 10.3263 12.4727 11.2281C12.3477 11.5406 12.1959 11.7727 11.9548 12.0138C11.7138 12.2548 11.4816 12.4066 11.1691 12.5316C10.2673 12.8888 8.12448 12.8084 7.12448 12.8084C6.12448 12.8084 3.98162 12.8888 3.07983 12.5316C2.76733 12.4066 2.53519 12.2548 2.29412 12.0138C2.05305 11.7727 1.90126 11.5406 1.77626 11.2281C1.41912 10.3263 1.49948 8.18342 1.49948 7.18342C1.49948 6.18342 1.41912 4.04056 1.77626 3.13878C1.90126 2.82628 2.05305 2.59413 2.29412 2.35306C2.53519 2.11199 2.76733 1.9602 3.07983 1.8352C3.98162 1.47806 6.12448 1.55842 7.12448 1.55842ZM13.9816 7.18342C13.9816 6.23699 13.9905 5.29949 13.937 4.35306C13.8834 3.25485 13.6334 2.28163 12.8298 1.47806C12.0263 0.67449 11.053 0.42449 9.95483 0.370919C9.00841 0.317348 8.07091 0.326276 7.12448 0.326276C6.17805 0.326276 5.24055 0.317348 4.29412 0.370919C3.19591 0.42449 2.22269 0.67449 1.41912 1.47806C0.615548 2.28163 0.365548 3.25485 0.311977 4.35306C0.258405 5.29949 0.267334 6.23699 0.267334 7.18342C0.267334 8.12985 0.258405 9.06735 0.311977 10.0138C0.365548 11.112 0.615548 12.0852 1.41912 12.8888C2.22269 13.6923 3.19591 13.9423 4.29412 13.9959C5.24055 14.0495 6.17805 14.0406 7.12448 14.0406C8.07091 14.0406 9.00841 14.0495 9.95483 13.9959C11.053 13.9423 12.0263 13.6923 12.8298 12.8888C13.6334 12.0852 13.8834 11.112 13.937 10.0138C13.9905 9.06735 13.9816 8.12985 13.9816 7.18342Z" fill="#454545"/>
</svg>
