<svg width="48" height="48" viewBox="0 0 48 48" fill="none" xmlns="http://www.w3.org/2000/svg">
<g clip-path="url(#clip0)">
<path d="M47.9913 0.905944C47.984 0.850628 47.9756 0.797399 47.9589 0.743126C47.9412 0.683635 47.9172 0.629362 47.89 0.574046C47.8754 0.543778 47.8702 0.511424 47.8525 0.4822C47.841 0.463413 47.8222 0.450889 47.8086 0.433146C47.7742 0.385135 47.7335 0.343387 47.6907 0.300595C47.6479 0.257803 47.6051 0.218142 47.5561 0.1837C47.5383 0.171176 47.5268 0.153433 47.5091 0.142996C47.4799 0.125253 47.4475 0.121078 47.4172 0.106466C47.3598 0.078286 47.3035 0.0542808 47.2429 0.0365378C47.1918 0.0229696 47.1417 0.0156637 47.0895 0.00940146C47.0279 0.00209553 46.9684 -0.00207929 46.9069 0.00105182C46.8495 0.00418294 46.7942 0.0156637 46.7378 0.0292319C46.7023 0.0375815 46.6658 0.0344504 46.6303 0.0469748L0.707267 15.7026C0.291872 15.8424 0.00902815 16.2296 0.000678506 16.669C-0.00767114 17.1084 0.259517 17.5061 0.670737 17.6637L22.1262 25.9079L31.3974 47.3707C31.5634 47.7537 31.9412 48 32.3555 48C32.3733 48 32.39 48 32.4077 47.999C32.8429 47.977 33.2176 47.6879 33.3502 47.2736L47.9621 1.35056C47.9725 1.31821 47.9694 1.28481 47.9756 1.25141C47.9881 1.19296 47.9975 1.1366 47.9996 1.07711C48.0017 1.01866 47.9986 0.963348 47.9913 0.905944ZM4.10661 16.7473L43.0546 3.46928L22.6512 23.8727L4.10661 16.7473ZM32.2063 43.9807L24.1489 25.3276L44.6713 4.80418L32.2063 43.9807Z" fill="#0A91E7"/>
<path d="M16.3931 31.6065C15.985 31.1985 15.3254 31.1985 14.9173 31.6065L0.305395 46.2184C-0.102694 46.6265 -0.102694 47.2861 0.305395 47.6942C0.508918 47.8977 0.776106 48 1.04329 48C1.31048 48 1.57767 47.8977 1.78119 47.6942L16.3931 33.0823C16.8012 32.6743 16.8012 32.0146 16.3931 31.6065Z" fill="#0A91E7"/>
<path d="M19.092 38.9125L11.7861 46.2184C11.378 46.6265 11.378 47.2861 11.7861 47.6942C11.9896 47.8977 12.2568 48 12.524 48C12.7912 48 13.0584 47.8977 13.2619 47.6942L20.5678 40.3883C20.9759 39.9802 20.9759 39.3206 20.5678 38.9125C20.1598 38.5044 19.5001 38.5044 19.092 38.9125Z" fill="#0A91E7"/>
<path d="M1.04329 36.5193C1.31048 36.5193 1.57767 36.417 1.78119 36.2135L9.08713 28.9075C9.49522 28.4994 9.49522 27.8398 9.08713 27.4317C8.67904 27.0236 8.01942 27.0236 7.61133 27.4317L0.305395 34.7377C-0.102694 35.1458 -0.102694 35.8054 0.305395 36.2135C0.508918 36.417 0.776106 36.5193 1.04329 36.5193Z" fill="#0A91E7"/>
</g>
<defs>
<clipPath id="clip0">
<rect width="48" height="48" fill="white"/>
</clipPath>
</defs>
</svg>
