<svg width="80" height="80" viewBox="0 0 80 80" fill="none" xmlns="http://www.w3.org/2000/svg">
<g clip-path="url(#clip0)">
<path d="M68.7564 0H65.3169C63.805 0 63.805 2.34409 65.3169 2.34409H68.7564C72.3085 2.34409 75.1985 5.22357 75.1985 8.76283V35.8874C75.1985 39.4268 72.3087 42.3063 68.7564 42.3063H64.8554C64.598 42.3063 64.3478 42.391 64.1433 42.5474L56.9851 48.0229V43.4783C56.9851 42.831 56.4605 42.3063 55.813 42.3063H41.5485C40.3803 42.3063 39.2576 41.9979 38.2675 41.4118V28.2549C38.2675 25.7904 37.0123 23.6131 35.1063 22.3249V8.76283C35.1063 5.22357 37.9962 2.34409 41.5485 2.34409H57.9721C59.4839 2.34409 59.4839 0 57.9721 0H41.5485C36.7037 0 32.7622 3.93104 32.7622 8.76283V21.2948C32.2255 21.1667 31.6664 21.0968 31.091 21.0968H9.6354C5.67842 21.0968 2.45905 24.3079 2.45905 28.2549V30.7857C2.45905 32.2975 4.80313 32.2975 4.80313 30.7857V28.2549C4.80313 25.6004 6.97079 23.4409 9.6354 23.4409H31.0912C33.7558 23.4409 35.9236 25.6004 35.9236 28.2549V41.8784C35.9095 41.9818 35.9101 42.0861 35.9236 42.1888V49.6448C35.9236 49.7922 35.9147 49.9389 35.9014 50.0849H33.4843C30.821 50.0849 28.6006 52.0072 28.1403 54.5337C28.0337 54.5738 27.9313 54.6299 27.8365 54.7031L22.5943 58.7507V55.6309C22.5943 54.9836 22.0697 54.4588 21.4223 54.4588H9.6354C6.97079 54.4588 4.80313 52.2993 4.80313 49.6448V37.818C4.80313 36.3062 2.45905 36.3062 2.45905 37.818V49.645C2.45905 53.592 5.67842 56.8031 9.6354 56.8031H20.2504V61.1365C20.2504 62.0766 21.3919 62.6406 22.1388 62.0643L28.0513 57.4991V70.6846C28.0513 73.6733 30.4887 76.1046 33.4845 76.1046H40.6769V78.8395C40.6769 79.7793 41.8185 80.344 42.5652 79.7673L47.309 76.1046H48.7104C51.7062 76.1046 54.1436 73.6731 54.1436 70.6846V68.6037C54.1436 67.0919 51.7995 67.0919 51.7995 68.6037V70.6846C51.7995 72.3808 50.4138 73.7605 48.7104 73.7605H46.9091C46.6498 73.7605 46.3979 73.8465 46.1929 74.0048L43.0209 76.4537V74.9324C43.0209 74.2851 42.4962 73.7603 41.8488 73.7603H33.4843C31.7811 73.7603 30.3953 72.3805 30.3953 70.6844V55.5051C30.3953 53.8089 31.7809 52.4291 33.4843 52.4291H48.7104C50.4136 52.4291 51.7995 53.809 51.7995 55.5051V61.2589C51.7995 62.7706 54.1436 62.7706 54.1436 61.2589V55.5052C54.1436 52.5165 51.7062 50.0852 48.7104 50.0852H38.2542C38.2631 49.9388 38.2677 44.019 38.2677 44.019C39.3011 44.4345 40.4091 44.6505 41.5486 44.6505H54.6411V50.3951C54.6411 51.3329 55.7779 51.8975 56.5253 51.326L65.2525 44.6505H68.7566C73.6012 44.6505 77.5427 40.7195 77.5427 35.8875V8.76283C77.5426 3.93104 73.6011 0 68.7564 0V0Z" fill="#888888"/>
<path d="M58.0797 8.65932C56.5915 8.27942 55.0751 9.45522 55.0751 10.9929C55.0751 12.673 54.4628 14.2922 53.3518 15.5513L50.1226 19.2054C49.9135 18.8846 49.5522 18.6722 49.1408 18.6722H42.8367C42.1893 18.6722 41.6647 19.1969 41.6647 19.8442V34.0283C41.6647 34.6756 42.1893 35.2003 42.8367 35.2003H49.1408C49.6144 35.2003 50.0214 34.9189 50.2062 34.5148C51.4825 35.2946 52.9615 35.7162 54.4662 35.7162H65.6072C67.3096 35.7162 68.7141 34.239 68.6342 32.5409C68.5987 31.7889 68.6375 21.6917 68.6375 21.4674C68.6375 19.7966 67.2781 18.437 65.6106 18.437L59.8171 18.4196L60.057 17.8516C61.1533 15.2554 60.9728 12.245 59.5748 9.79824C59.2485 9.22659 58.7173 8.82232 58.0797 8.65932C58.7173 8.82232 57.4418 8.49649 58.0797 8.65932C58.7173 8.82232 56.5917 8.27942 58.0797 8.65932ZM47.9687 32.8563H44.0088V21.0163H47.9687V32.8563ZM65.6072 20.7809C65.9857 20.7809 66.2936 21.0888 66.2936 21.4673C66.2936 21.6903 66.2912 22.2955 66.2881 23.1161C66.2707 27.6468 66.2592 31.9377 66.2926 32.6509C66.3048 32.9083 66.1796 33.0799 66.104 33.1593C65.973 33.2965 65.7966 33.372 65.6072 33.372H54.4662C53.1382 33.372 51.8385 32.9117 50.8062 32.0761L50.3128 31.6767V22.5299L55.109 17.1027C56.5987 15.4144 57.4191 13.2445 57.4191 10.9928C57.4191 10.9265 57.5096 10.9093 57.5396 10.9609C58.5776 12.7773 58.7114 15.0121 57.8976 16.9394L56.9727 19.1302C56.82 19.4917 56.8584 19.9053 57.0746 20.2326C57.291 20.5598 57.6567 20.757 58.0488 20.7583L65.6072 20.7809Z" fill="#888888"/>
<path d="M12.4946 40.7087C11.8471 40.7087 11.3225 41.2334 11.3225 41.8807C11.3225 42.528 11.8471 43.0527 12.4946 43.0527H15.9495L15.3041 46.9563C15.1984 47.5948 15.6307 48.1982 16.2692 48.3038C16.334 48.3146 16.3983 48.3198 16.4617 48.3198C17.0249 48.3198 17.5217 47.9127 17.6167 47.3387L18.3253 43.0529H21.1527L20.5073 46.9564C20.4017 47.595 20.8339 48.1983 21.4724 48.304C21.5373 48.3148 21.6015 48.3199 21.665 48.3199C22.2282 48.3199 22.725 47.9128 22.82 47.3388L23.5285 43.0531H28.2312C28.8787 43.0531 29.4033 42.5283 29.4033 41.881C29.4033 41.2337 28.8787 40.709 28.2312 40.709H23.9161L24.3888 37.8498H28.2312C28.8787 37.8498 29.4033 37.325 29.4033 36.6778C29.4033 36.0305 28.8787 35.5057 28.2312 35.5057H24.7764L25.4218 31.6022C25.5274 30.9637 25.0952 30.3603 24.4566 30.2546C23.8173 30.1487 23.2147 30.5813 23.1091 31.2198L22.4005 35.5056H19.5731L20.2185 31.602C20.3242 30.9635 19.8919 30.3601 19.2534 30.2545C18.6133 30.1485 18.0116 30.5811 17.9058 31.2196L17.1973 35.5054H12.4946C11.8471 35.5054 11.3225 36.0302 11.3225 36.6774C11.3225 37.3247 11.8471 37.8495 12.4946 37.8495H16.8097L16.337 40.7087H12.4946ZM19.1857 37.8495H22.0131L21.5404 40.7087H18.713L19.1857 37.8495Z" fill="#888888"/>
<path d="M41.0832 58.4766C40.1368 57.6974 38.8777 57.3901 37.6147 57.6971C35.9962 58.0902 34.363 59.6032 34.363 62.0971C34.363 63.6494 34.9295 64.9968 36.0948 66.2163C37.0466 67.2126 38.4203 68.1599 40.5484 69.2882C40.7202 69.3793 40.9088 69.4248 41.0974 69.4248C41.286 69.4248 41.4746 69.3793 41.6464 69.2882C45.3591 67.3199 47.8317 65.3439 47.8317 62.0971C47.8317 59.5896 46.1405 58.092 44.4643 57.7203C43.205 57.4408 41.9842 57.7375 41.0832 58.4766ZM45.4874 62.0971C45.4874 63.8483 44.3258 65.1434 41.0972 66.9207C37.8686 65.1432 36.7069 63.8482 36.7069 62.0971C36.7069 60.7941 37.4614 60.1466 38.1676 59.975C38.2978 59.9434 38.4372 59.9256 38.5805 59.9256C39.1116 59.9256 39.6956 60.1709 40.0557 60.869C40.2609 61.2662 40.6756 61.5125 41.1205 61.5033C41.5673 61.4944 41.9703 61.2322 42.1593 60.8271C42.5385 60.0142 43.3362 59.8712 43.9562 60.0089C44.6967 60.1728 45.4874 60.8077 45.4874 62.0971Z" fill="#888888"/>
</g>
<defs>
<clipPath id="clip0">
<rect width="80" height="80" fill="white"/>
</clipPath>
</defs>
</svg>
