<svg width="40" height="48" viewBox="0 0 40 48" fill="none" xmlns="http://www.w3.org/2000/svg">
<path d="M31.8765 28.9902V9.75175C31.8765 8.84753 31.1408 8.11187 30.2366 8.11187H6.35791C5.45369 8.11187 4.71803 8.84753 4.71803 9.75175V28.9901C4.71803 29.8943 5.45369 30.63 6.35791 30.63H30.2366C31.1408 30.6301 31.8765 29.8944 31.8765 28.9902ZM6.12363 28.9902V21.4792L9.84513 17.7576C9.90475 17.6979 9.9745 17.689 10.0108 17.689C10.0471 17.689 10.1166 17.6979 10.1764 17.7576L10.9773 18.5584C11.2516 18.8329 11.6966 18.8328 11.9712 18.5584C12.2456 18.2839 12.2456 17.839 11.9711 17.5645L11.1704 16.7638C10.8607 16.454 10.4489 16.2834 10.0109 16.2834C9.57278 16.2834 9.16103 16.4539 8.85128 16.7637L6.12381 19.4913V9.75175C6.12381 9.62256 6.22891 9.51746 6.35809 9.51746H30.2368C30.366 9.51746 30.4711 9.62256 30.4711 9.75175V28.9901C30.4711 29.1193 30.366 29.2244 30.2368 29.2244H29.5512L20.7948 20.4679C20.1554 19.8288 19.1151 19.8288 18.4757 20.468L16.6754 22.2684L14.2108 19.8038C13.9364 19.5293 13.4914 19.5293 13.2168 19.8038C12.9423 20.0782 12.9423 20.5233 13.2168 20.7978L15.8471 23.4281C16.0683 23.6493 16.3625 23.7711 16.6754 23.7711C16.9882 23.7711 17.2825 23.6493 17.5037 23.428L19.4697 21.462C19.561 21.3707 19.7096 21.3707 19.801 21.462L27.5633 29.2244H6.35791C6.22872 29.2244 6.12363 29.1193 6.12363 28.9902Z" fill="#0A91E7"/>
<path d="M36.5934 34.3502V25.3495C36.5934 24.9614 36.2788 24.6467 35.8906 24.6467C35.5024 24.6467 35.1878 24.9613 35.1878 25.3495V33.2904C34.0103 32.5931 32.638 32.1911 31.1731 32.1911C27.1495 32.1911 23.8208 35.2137 23.3327 39.1072H2.10844C1.72088 39.1072 1.40559 38.7919 1.40559 38.4043V2.10844C1.40559 1.72087 1.72088 1.40559 2.10844 1.40559H34.4849C34.8725 1.40559 35.1878 1.72087 35.1878 2.10844V21.8482C35.1878 22.2364 35.5024 22.5511 35.8906 22.5511C36.2788 22.5511 36.5934 22.2365 36.5934 21.8482V2.10844C36.5934 0.945844 35.6476 0 34.485 0H2.10844C0.945844 0 0 0.945844 0 2.10844V38.4043C0 39.5669 0.945844 40.5127 2.10844 40.5127H23.2808C23.3562 41.9622 23.8227 43.3509 24.6438 44.5519C24.8629 44.8723 25.3003 44.9543 25.6206 44.7354C25.941 44.5163 26.0232 44.079 25.8041 43.7586C25.065 42.6774 24.6743 41.4108 24.6743 40.0956C24.6743 36.5121 27.5897 33.5968 31.1731 33.5968C34.7565 33.5968 37.6718 36.5122 37.6718 40.0956C37.6718 43.679 34.7565 46.5944 31.1731 46.5944C30.1048 46.5944 29.0459 46.3298 28.1108 45.8293C27.7686 45.6462 27.3427 45.7751 27.1596 46.1172C26.9764 46.4594 27.1053 46.8853 27.4476 47.0685C28.5859 47.6779 29.8742 47.9999 31.1731 47.9999C35.5316 47.9999 39.0775 44.454 39.0775 40.0955C39.0775 37.8337 38.1212 35.7923 36.5934 34.3502Z" fill="#0A91E7"/>
<path d="M31.1739 36.479C30.7857 36.479 30.4711 36.7936 30.4711 37.1818V39.413H28.2399C27.8517 39.413 27.5371 39.7276 27.5371 40.1158C27.5371 40.504 27.8517 40.8187 28.2399 40.8187H30.4711V43.0498C30.4711 43.4379 30.7857 43.7527 31.1739 43.7527C31.5621 43.7527 31.8768 43.438 31.8768 43.0498V40.8187H34.1079C34.4961 40.8187 34.8108 40.504 34.8108 40.1158C34.8108 39.7276 34.4961 39.413 34.1079 39.413H31.8768V37.1818C31.8767 36.7937 31.5621 36.479 31.1739 36.479Z" fill="#0A91E7"/>
<path d="M7.38477 34.0216C7.4386 33.4806 7.04368 32.9984 6.50269 32.9446C5.9617 32.8908 5.47951 33.2857 5.42568 33.8267C5.37185 34.3677 5.76678 34.8499 6.30777 34.9037C6.84875 34.9575 7.33094 34.5626 7.38477 34.0216Z" fill="#0A91E7"/>
<path d="M10.8661 34.0219C10.9199 33.4809 10.525 32.9987 9.98401 32.9449C9.44302 32.8911 8.96082 33.286 8.907 33.827C8.85317 34.368 9.24809 34.8502 9.78909 34.904C10.3301 34.9578 10.8123 34.5629 10.8661 34.0219Z" fill="#0A91E7"/>
<path d="M14.3458 34.0224C14.3996 33.4814 14.0047 32.9992 13.4637 32.9453C12.9227 32.8915 12.4405 33.2864 12.3867 33.8274C12.3329 34.3684 12.7278 34.8506 13.2688 34.9044C13.8098 34.9583 14.292 34.5633 14.3458 34.0224Z" fill="#0A91E7"/>
<path d="M20.9991 5.84194C21.3873 5.84194 21.7019 5.52732 21.7019 5.1391C21.7019 4.75088 21.3873 4.43625 20.9991 4.43625H17.9538C17.5656 4.43625 17.251 4.75088 17.251 5.1391C17.251 5.52732 17.5656 5.84194 17.9538 5.84194H20.9991Z" fill="#0A91E7"/>
<path d="M14.3473 5.84194C14.7355 5.84194 15.0501 5.52732 15.0501 5.1391C15.0501 4.75088 14.7355 4.43625 14.3473 4.43625H6.03015C5.64193 4.43625 5.32731 4.75088 5.32731 5.1391C5.32731 5.52732 5.64193 5.84194 6.03015 5.84194H14.3473Z" fill="#0A91E7"/>
<path d="M24.2511 17.9699C25.6237 17.9699 26.7404 16.8532 26.7404 15.4806C26.7404 14.108 25.6237 12.9914 24.2511 12.9914C22.8785 12.9914 21.7619 14.108 21.7619 15.4806C21.7619 16.8532 22.8785 17.9699 24.2511 17.9699ZM24.2511 14.3971C24.8486 14.3971 25.3347 14.8832 25.3347 15.4806C25.3347 16.0781 24.8486 16.5642 24.2511 16.5642C23.6537 16.5642 23.1676 16.0781 23.1676 15.4806C23.1675 14.8832 23.6537 14.3971 24.2511 14.3971Z" fill="#0A91E7"/>
</svg>
