<svg width="15" height="12" viewBox="0 0 15 12" fill="none" xmlns="http://www.w3.org/2000/svg">
<path d="M14.7316 1.82628C14.2138 2.04949 13.6513 2.21021 13.0709 2.27271C13.6691 1.91556 14.1245 1.35306 14.3388 0.683419C13.7852 1.01378 13.1602 1.25485 12.5084 1.37985C11.9816 0.817348 11.2316 0.469133 10.4013 0.469133C8.80305 0.469133 7.51733 1.76378 7.51733 3.35306C7.51733 3.57628 7.54412 3.79949 7.58876 4.01378C5.19591 3.88878 3.06198 2.74592 1.64233 0.995919C1.39233 1.42449 1.24948 1.91556 1.24948 2.45128C1.24948 3.45128 1.75841 4.3352 2.53519 4.85306C2.06198 4.8352 1.61555 4.70128 1.23162 4.48699C1.23162 4.49592 1.23162 4.51378 1.23162 4.5227C1.23162 5.92449 2.22269 7.08521 3.54412 7.35306C3.30305 7.41556 3.04412 7.45128 2.78519 7.45128C2.59769 7.45128 2.41912 7.43342 2.24055 7.40663C2.60662 8.54949 3.66912 9.37985 4.93698 9.40663C3.94591 10.1834 2.70483 10.6388 1.35662 10.6388C1.11555 10.6388 0.892334 10.6298 0.660191 10.6031C1.93698 11.4245 3.45483 11.8977 5.08876 11.8977C10.3923 11.8977 13.2941 7.50485 13.2941 3.69235C13.2941 3.56735 13.2941 3.44235 13.2852 3.31735C13.8477 2.90663 14.3388 2.39771 14.7316 1.82628Z" fill="#454545"/>
</svg>
