<svg width="17" height="12" viewBox="0 0 17 12" fill="none" xmlns="http://www.w3.org/2000/svg">
<path d="M6.61555 8.25485V3.76378L10.937 6.0227L6.61555 8.25485ZM8.26733 0.558419C4.90126 0.558419 2.66912 0.719133 2.66912 0.719133C2.35662 0.754848 1.66912 0.754848 1.06198 1.39771C1.06198 1.39771 0.570905 1.87985 0.428048 2.98699C0.258405 4.28163 0.267334 5.57628 0.267334 5.57628V6.79056C0.267334 6.79056 0.258405 8.0852 0.428048 9.37985C0.570905 10.4781 1.06198 10.9691 1.06198 10.9691C1.66912 11.6031 2.47269 11.5852 2.82983 11.6477C2.82983 11.6477 4.10662 11.7727 8.26733 11.8084C11.6334 11.8084 13.8655 11.6388 13.8655 11.6388C14.178 11.6031 14.8655 11.6031 15.4727 10.9691C15.4727 10.9691 15.9638 10.4781 16.1066 9.37985C16.2763 8.0852 16.2673 6.79056 16.2673 6.79056V5.57628C16.2673 5.57628 16.2763 4.28163 16.1066 2.98699C15.9638 1.87985 15.4727 1.39771 15.4727 1.39771C14.8655 0.754848 14.178 0.754848 13.8655 0.719133C13.8655 0.719133 11.6334 0.558419 8.26733 0.558419Z" fill="#454545"/>
</svg>
